<svg id="wave" style="transform:rotate(180deg); transition: 0.3s" viewBox="0 0 5000 400" version="1.1" xmlns="http://www.w3.org/2000/svg"><defs><linearGradient id="sw-gradient-0" x1="0" x2="0" y1="1" y2="0"><stop stop-color="rgba(10, 147, 150, 1)" offset="0%"></stop><stop stop-color="rgba(10, 147, 150, 1)" offset="100%"></stop></linearGradient></defs><path style="transform:translate(0, 0px); opacity:1" fill="url(#sw-gradient-0)" d="M0,294L240,261.3C480,229,960,163,1440,171.5C1920,180,2400,261,2880,302.2C3360,343,3840,343,4320,302.2C4800,261,5280,180,5760,163.3C6240,147,6720,196,7200,220.5C7680,245,8160,245,8640,261.3C9120,278,9600,310,10080,285.8C10560,261,11040,180,11520,196C12000,212,12480,327,12960,343C13440,359,13920,278,14400,228.7C14880,180,15360,163,15840,147C16320,131,16800,114,17280,122.5C17760,131,18240,163,18720,204.2C19200,245,19680,294,20160,334.8C20640,376,21120,408,21600,359.3C22080,310,22560,180,23040,114.3C23520,49,24000,49,24480,73.5C24960,98,25440,147,25920,138.8C26400,131,26880,65,27360,49C27840,33,28320,65,28800,122.5C29280,180,29760,261,30240,245C30720,229,31200,114,31680,89.8C32160,65,32640,131,33120,163.3C33600,196,34080,196,34320,196L34560,196L34560,490L34320,490C34080,490,33600,490,33120,490C32640,490,32160,490,31680,490C31200,490,30720,490,30240,490C29760,490,29280,490,28800,490C28320,490,27840,490,27360,490C26880,490,26400,490,25920,490C25440,490,24960,490,24480,490C24000,490,23520,490,23040,490C22560,490,22080,490,21600,490C21120,490,20640,490,20160,490C19680,490,19200,490,18720,490C18240,490,17760,490,17280,490C16800,490,16320,490,15840,490C15360,490,14880,490,14400,490C13920,490,13440,490,12960,490C12480,490,12000,490,11520,490C11040,490,10560,490,10080,490C9600,490,9120,490,8640,490C8160,490,7680,490,7200,490C6720,490,6240,490,5760,490C5280,490,4800,490,4320,490C3840,490,3360,490,2880,490C2400,490,1920,490,1440,490C960,490,480,490,240,490L0,490Z"></path><defs><linearGradient id="sw-gradient-1" x1="0" x2="0" y1="1" y2="0"><stop stop-color="rgba(148, 210, 189, 1)" offset="0%"></stop><stop stop-color="rgba(148, 210, 189, 1)" offset="100%"></stop></linearGradient></defs><path style="transform:translate(0, 50px); opacity:0.9" fill="url(#sw-gradient-1)" d="M0,98L240,155.2C480,212,960,327,1440,318.5C1920,310,2400,180,2880,147C3360,114,3840,180,4320,220.5C4800,261,5280,278,5760,310.3C6240,343,6720,392,7200,392C7680,392,8160,343,8640,334.8C9120,327,9600,359,10080,351.2C10560,343,11040,294,11520,228.7C12000,163,12480,82,12960,81.7C13440,82,13920,163,14400,236.8C14880,310,15360,376,15840,400.2C16320,425,16800,408,17280,408.3C17760,408,18240,425,18720,375.7C19200,327,19680,212,20160,196C20640,180,21120,261,21600,285.8C22080,310,22560,278,23040,245C23520,212,24000,180,24480,171.5C24960,163,25440,180,25920,220.5C26400,261,26880,327,27360,359.3C27840,392,28320,392,28800,343C29280,294,29760,196,30240,163.3C30720,131,31200,163,31680,187.8C32160,212,32640,229,33120,204.2C33600,180,34080,114,34320,81.7L34560,49L34560,490L34320,490C34080,490,33600,490,33120,490C32640,490,32160,490,31680,490C31200,490,30720,490,30240,490C29760,490,29280,490,28800,490C28320,490,27840,490,27360,490C26880,490,26400,490,25920,490C25440,490,24960,490,24480,490C24000,490,23520,490,23040,490C22560,490,22080,490,21600,490C21120,490,20640,490,20160,490C19680,490,19200,490,18720,490C18240,490,17760,490,17280,490C16800,490,16320,490,15840,490C15360,490,14880,490,14400,490C13920,490,13440,490,12960,490C12480,490,12000,490,11520,490C11040,490,10560,490,10080,490C9600,490,9120,490,8640,490C8160,490,7680,490,7200,490C6720,490,6240,490,5760,490C5280,490,4800,490,4320,490C3840,490,3360,490,2880,490C2400,490,1920,490,1440,490C960,490,480,490,240,490L0,490Z"></path></svg>